<svg width="25" height="25" viewBox="0 0 25 25" fill="none" xmlns="http://www.w3.org/2000/svg">
<g clip-path="url(#clip0)">
<path d="M16.1628 13.4864H18.675V14.0958H21.4473L24.4092 17.0836L23.4104 18.0736L20.8612 15.502H18.675V17.8411C18.675 17.8563 18.6745 17.8714 18.6744 17.8865L22.6561 21.4174V24.5H21.2499V22.0499L18.4363 19.5548C17.7512 21.9585 15.6627 23.7765 13.1172 24.0623V16.532C13.1172 14.8526 14.4834 13.4864 16.1628 13.4864Z" fill="#DC2A44"/>
<path d="M6.24751 12.0801C6.32204 11.6555 6.43974 11.2455 6.5955 10.8547H3.55876L0.573099 7.86906L1.56746 6.8747L4.14122 9.44847H7.37921C8.52061 7.90628 10.3524 6.90452 12.4141 6.90452C14.4757 6.90452 16.3074 7.90628 17.4489 9.44847H20.6869L23.2606 6.8747L24.255 7.86906L21.2693 10.8547H18.2326C18.3884 11.2455 18.5061 11.6555 18.5806 12.0801H16.1628C14.5908 12.0801 13.2064 12.8992 12.4141 14.133C11.6217 12.8992 10.2374 12.0801 8.66527 12.0801H6.24751Z" fill="#DC2A44"/>
<path d="M6.15317 15.502H3.96692L1.41772 18.0736L0.418951 17.0836L3.38079 14.0958H6.15317V13.4864H8.66534C10.3447 13.4864 11.711 14.8526 11.711 16.532V24.0623C9.16555 23.7765 7.07694 21.9585 6.39186 19.5549L3.57828 22.05V24.5H2.17203V21.4174L6.15373 17.8865C6.15364 17.8714 6.15322 17.8563 6.15322 17.8411V15.502H6.15317Z" fill="#DC2A44"/>
<path d="M9.14354 6.23302V5.88722C9.14354 5.57208 9.18924 5.26758 9.27282 4.97901V1.88578L10.4477 0.500015L11.5204 1.40939L10.6791 2.40164V3.11677C11.1824 2.80045 11.777 2.6167 12.414 2.6167C13.0511 2.6167 13.6457 2.80045 14.149 3.11677V2.40169L13.3077 1.40939L14.3804 0.500015L15.5552 1.88578V4.97901C15.6388 5.26758 15.6845 5.57208 15.6845 5.88722V6.23302C14.6684 5.75306 13.5516 5.49825 12.414 5.49825C11.2764 5.49825 10.1596 5.75306 9.14354 6.23302Z" fill="#DC2A44"/>
</g>
<defs>
<clipPath id="clip0">
<rect width="24" height="24" fill="white" transform="matrix(-1 0 0 1 24.4141 0.500015)"/>
</clipPath>
</defs>
</svg>
