<svg width="25" height="17" viewBox="0 0 25 17" fill="none" xmlns="http://www.w3.org/2000/svg">
<path d="M12.4141 5.28962C10.6086 5.28962 9.14136 6.75688 9.14136 8.56235C9.14136 10.3678 10.6086 11.8351 12.4141 11.8351C14.2196 11.8351 15.6868 10.3678 15.6868 8.56235C15.6868 6.75688 14.2195 5.28962 12.4141 5.28962Z" fill="#DC2A44"/>
<path d="M12.4141 0.380524C6.95952 0.380524 2.30135 3.77322 0.414062 8.56235C2.30135 13.3514 6.95952 16.7442 12.4141 16.7442C17.8741 16.7442 22.5268 13.3514 24.4141 8.56235C22.5268 3.77322 17.8741 0.380524 12.4141 0.380524ZM12.4141 14.0169C9.40318 14.0169 6.95952 11.5732 6.95952 8.5623C6.95952 5.55138 9.40318 3.10778 12.4141 3.10778C15.425 3.10778 17.8687 5.55144 17.8687 8.56235C17.8687 11.5733 15.425 14.0169 12.4141 14.0169Z" fill="#DC2A44"/>
</svg>
