<svg width="54" height="98" viewBox="0 0 54 98" fill="none" xmlns="http://www.w3.org/2000/svg">
<path d="M45.75 0.5625H8.25C6.17871 0.564826 4.19292 1.38867 2.7283 2.8533C1.26367 4.31792 0.439826 6.30371 0.4375 8.375V89.625C0.439826 91.6963 1.26367 93.6821 2.7283 95.1467C4.19292 96.6113 6.17871 97.4352 8.25 97.4375H45.75C47.8213 97.4352 49.8071 96.6113 51.2717 95.1467C52.7363 93.6821 53.5602 91.6963 53.5625 89.625V8.375C53.5602 6.30371 52.7363 4.31792 51.2717 2.8533C49.8071 1.38867 47.8213 0.564826 45.75 0.5625ZM37.5941 3.6875L36.6566 8.375H17.3436L16.4061 3.6875H37.5941ZM50.4375 89.625C50.4361 90.8678 49.9418 92.0592 49.063 92.938C48.1842 93.8168 46.9928 94.3111 45.75 94.3125H8.25C7.00723 94.3111 5.81575 93.8168 4.93698 92.938C4.0582 92.0592 3.5639 90.8678 3.5625 89.625V8.375C3.5639 7.13223 4.0582 5.94075 4.93698 5.06198C5.81575 4.1832 7.00723 3.6889 8.25 3.6875H13.2189L14.5303 10.2439C14.6011 10.5982 14.7925 10.9169 15.0719 11.1459C15.3512 11.3749 15.7013 11.5 16.0625 11.5H37.9375C38.2987 11.5 38.6488 11.3749 38.9281 11.1459C39.2075 10.9169 39.3989 10.5982 39.4697 10.2439L40.7811 3.6875H45.75C46.9928 3.6889 48.1842 4.1832 49.063 5.06198C49.9418 5.94075 50.4361 7.13223 50.4375 8.375V89.625Z" fill="white"/>
<path d="M17.625 88.0625H8.25C7.8356 88.0625 7.43817 88.2271 7.14514 88.5201C6.85212 88.8132 6.6875 89.2106 6.6875 89.625C6.6875 90.0394 6.85212 90.4368 7.14514 90.7299C7.43817 91.0229 7.8356 91.1875 8.25 91.1875H17.625C18.0394 91.1875 18.4368 91.0229 18.7299 90.7299C19.0229 90.4368 19.1875 90.0394 19.1875 89.625C19.1875 89.2106 19.0229 88.8132 18.7299 88.5201C18.4368 88.2271 18.0394 88.0625 17.625 88.0625Z" fill="white"/>
<path d="M23.875 88.0625H22.3125C21.8981 88.0625 21.5007 88.2271 21.2076 88.5201C20.9146 88.8132 20.75 89.2106 20.75 89.625C20.75 90.0394 20.9146 90.4368 21.2076 90.7299C21.5007 91.0229 21.8981 91.1875 22.3125 91.1875H23.875C24.2894 91.1875 24.6868 91.0229 24.9799 90.7299C25.2729 90.4368 25.4375 90.0394 25.4375 89.625C25.4375 89.2106 25.2729 88.8132 24.9799 88.5201C24.6868 88.2271 24.2894 88.0625 23.875 88.0625Z" fill="white"/>
</svg>
